<?xml version="1.0" encoding="UTF-8" standalone="no"?>
<!-- Created with Inkscape (http://www.inkscape.org/) -->
<svg
   xmlns:dc="http://purl.org/dc/elements/1.1/"
   xmlns:cc="http://web.resource.org/cc/"
   xmlns:rdf="http://www.w3.org/1999/02/22-rdf-syntax-ns#"
   xmlns:svg="http://www.w3.org/2000/svg"
   xmlns="http://www.w3.org/2000/svg"
   xmlns:sodipodi="http://sodipodi.sourceforge.net/DTD/sodipodi-0.dtd"
   xmlns:inkscape="http://www.inkscape.org/namespaces/inkscape"
   id="svg2"
   sodipodi:version="0.32"
   inkscape:version="0.44"
   width="500"
   height="500"
   version="1.0"
   sodipodi:docbase="D:\wiki_svg"
   sodipodi:docname="Climbing.svg">
  <metadata
     id="metadata7">
    <rdf:RDF>
      <cc:Work
         rdf:about="">
        <dc:format>image/svg+xml</dc:format>
        <dc:type
           rdf:resource="http://purl.org/dc/dcmitype/StillImage" />
      </cc:Work>
    </rdf:RDF>
  </metadata>
  <defs
     id="defs5" />
  <sodipodi:namedview
     inkscape:window-height="573"
     inkscape:window-width="853"
     inkscape:pageshadow="2"
     inkscape:pageopacity="0.0"
     guidetolerance="10.0"
     gridtolerance="10.0"
     objecttolerance="10.0"
     borderopacity="1.0"
     bordercolor="#666666"
     pagecolor="#ffffff"
     id="base"
     inkscape:zoom="0.5"
     inkscape:cx="302.80329"
     inkscape:cy="345.33355"
     inkscape:window-x="26"
     inkscape:window-y="94"
     inkscape:current-layer="svg2"
     width="500px"
     height="500px" />
  <path
     style="fill:black"
     d="M 286.02042,449.29598 C 288.41983,410.47468 285.97677,402.22979 260.86925,364.41517 C 260.86925,364.41517 237.11878,332.27408 237.11878,322.53221 C 237.11878,313.71391 252.7536,296.71337 252.7536,296.71337 L 272.44662,270.89445 L 246.10076,254.61183 C 231.61047,245.6563 214.14091,229.76117 207.27938,219.28912 C 200.41785,208.81716 192.29483,200.39547 189.2282,200.57433 C 186.16157,200.75313 173.29794,221.78142 160.6424,247.30375 C 147.98685,272.82614 135.1233,295.26911 132.05674,297.1771 C 123.70929,302.3707 66.171433,285.42693 60.39015,276.07271 C 51.477578,261.65183 69.289375,251.71501 87.031299,261.21019 C 100.75689,268.55594 106.02935,266.92743 121.07173,250.6965 C 130.86129,240.13335 142.92249,217.96789 147.87448,201.43983 C 160.60013,158.96521 173.64094,149.90729 200.55422,164.84942 C 225.48818,178.69267 278.5449,200.24912 287.6832,200.24912 C 291.13824,200.24912 297.00144,185.5802 300.71243,167.65151 C 307.05094,137.02938 306.03244,133.82378 283.90625,114.75525 C 283.90625,114.75525 261.36734,94.871698 261.36734,91.818797 C 261.36734,88.340363 281.36203,51.477522 281.36203,51.477522 C 292.91708,27.839035 306.0928,8.4984473 310.64144,8.4984473 C 321.2681,8.4984473 313.2326,39.196504 296.39083,56.674886 C 287.72194,65.671444 285.66038,71.608352 295.91176,81.859727 C 302.24965,88.197701 320.34609,95.478397 336.12602,98.039113 C 364.02037,102.56573 364.75079,102.08797 362.43989,80.8255 C 360.53143,63.265356 364.32901,56.872466 381.71213,48.38213 C 400.83766,39.04065 405.08425,39.367623 418.14477,51.187212 C 438.81235,69.89111 436.60254,82.904845 410.4637,96.421733 C 388.47096,107.79462 388.24416,108.53002 399.66675,131.42712 C 406.08396,144.29075 409.65212,159.1996 407.59595,164.55788 C 398.8772,187.27865 341.89082,260.17896 306.70441,293.62426 C 271.10567,327.46166 269.47363,330.64404 281.06336,343.62326 C 287.87096,351.24703 297.2745,371.88638 301.96012,389.48841 C 304.30285,398.28939 304.06301,406.17678 307.01995,412.4484 C 309.9769,418.72003 316.13056,423.37582 318.27418,424.09036 C 323.24759,425.74816 323.77942,437.76226 319.74361,457.28187 C 315.23916,479.06812 309.09209,488.51122 298.39056,490.08457 C 284.73323,492.09243 283.6052,488.37278 286.02042,449.29598 z "
     id="path1883"
     sodipodi:nodetypes="ccscccssssssssssscscsssssssssssssssssc" />
</svg>
